<svg width="59" height="59" viewBox="0 0 59 59" fill="none" xmlns="http://www.w3.org/2000/svg">
<path d="M29.5001 0C13.2076 0 0 13.2076 0 29.5C0 45.7924 13.2076 59 29.5001 59C45.7925 59 59 45.7924 59 29.5C59 13.2076 45.7925 0 29.5001 0ZM48.2114 31.6481C43.7681 36.0915 35.4963 35.0239 29.7361 29.2638C23.9761 23.5035 22.9084 15.2319 27.3519 10.7887C31.7953 6.34534 40.067 7.41274 45.8271 13.1729C51.5872 18.9331 52.6548 27.2048 48.2114 31.6481Z" fill="#FCE8C3"/>
<path d="M52.9294 30.2375C50.5105 30.2402 48.3964 31.8853 47.7798 34.2453C45.1284 44.3034 34.8973 50.2886 24.9279 47.6135C24.0058 47.366 23.1039 47.0477 22.2299 46.6612C19.5368 45.4636 16.3911 46.6954 15.204 49.4125C14.0185 52.1262 15.2345 55.2959 17.922 56.4971C20.7651 57.7626 23.7904 58.5606 26.8834 58.8612H26.8835C26.899 58.8627 26.9143 58.8642 26.9296 58.8656H26.9297C27.084 58.8805 27.238 58.8939 27.3929 58.9063H27.3936L27.4159 58.9081L27.417 58.9082L27.4381 58.9098L27.4408 58.9101L27.4615 58.9117L27.4642 58.912L27.4838 58.9135L27.4883 58.9138L27.5075 58.9154L27.5114 58.9156L27.5308 58.9171L27.5351 58.9175L27.5544 58.9189L27.5586 58.9193L27.5776 58.9207L27.5822 58.921L27.6012 58.9224L27.6056 58.9227L27.6244 58.9241L27.6294 58.9244L27.6484 58.9258L27.6519 58.9261L27.6718 58.9275L27.6754 58.9277L27.6958 58.9291L27.6968 58.9292L27.7191 58.9307L27.72 58.9309C27.7967 58.9362 27.8726 58.9411 27.9496 58.9457L27.9533 58.946L27.9739 58.9472L27.9764 58.9474L27.996 58.9485L28.0005 58.9488L28.0188 58.9498L28.0244 58.9501L28.0412 58.9511L28.0486 58.9515L28.0651 58.9524L28.072 58.9528L28.0888 58.9538L28.0957 58.9542L28.1127 58.9552L28.1191 58.9556L28.1359 58.9564L28.1432 58.9568L28.1597 58.9577L28.1665 58.9581L28.1831 58.959L28.1906 58.9593L28.2067 58.9602L28.2144 58.9606L28.2301 58.9614L28.239 58.9619L28.254 58.9626L28.2621 58.963L28.2781 58.9638L28.2852 58.9641L28.302 58.965L28.3082 58.9653L28.3255 58.9661L28.3323 58.9665L28.3495 58.9674L28.3544 58.9677L28.3735 58.9685L28.3765 58.9687L28.3971 58.9697L28.3992 58.9698C28.4363 58.9714 28.4757 58.9732 28.5128 58.9747L28.5148 58.9748L28.5334 58.9756L28.5386 58.9758L28.5562 58.9766L28.5623 58.9769L28.5786 58.9775L28.5866 58.9779L28.6008 58.9784L28.6107 58.9787L28.6249 58.9793L28.6344 58.9796L28.6489 58.9801L28.6583 58.9805L28.6728 58.981L28.6824 58.9814L28.6965 58.9819L28.7061 58.9823L28.7207 58.9828L28.7298 58.983L28.7444 58.9835L28.7537 58.9838L28.7683 58.9843L28.778 58.9847L28.7915 58.9852L28.8024 58.9855L28.8154 58.9859L28.8263 58.9863L28.8394 58.9867L28.85 58.9871L28.8635 58.9874L28.8741 58.9877L28.8871 58.9881L28.8978 58.9883L28.9114 58.9887L28.9213 58.989L28.9352 58.9893L28.9453 58.9896L28.9593 58.99L28.9699 58.9902L28.9828 58.9906L28.9947 58.9908L29.0071 58.9911L29.0179 58.9914L29.0311 58.9917L29.0415 58.992L29.0551 58.9924L29.0676 58.9926L29.0788 58.9929L29.0938 58.9932L29.1185 58.9937L29.1264 58.9939L29.1415 58.9941L29.1504 58.9942L29.164 58.9945L29.1746 58.9947L29.1871 58.995L29.1987 58.9953L29.2112 58.9955L29.2227 58.9958L29.2352 58.996L29.2467 58.9963L29.259 58.9965L29.271 58.9966L29.2833 58.9969L29.2948 58.997L29.3074 58.9971L29.3191 58.9973L29.3315 58.9974L29.343 58.9975L29.3556 58.9976L29.3673 58.9978L29.3796 58.9979L29.3917 58.998L29.4033 58.9982L29.416 58.9983L29.4275 58.9984L29.4398 58.9985L29.4518 58.9987L29.4643 58.9988L29.4756 58.9989L29.4886 58.999L29.4997 58.9992L29.5128 58.9993L29.5241 58.9994L29.5368 58.9995L29.5483 58.9997L29.5613 59H29.5724H29.5854H29.5968H29.6089H29.6211H29.6331H29.645H29.6591H29.6691H29.6832H29.6935H29.7062H29.7177H29.7415H29.7639H29.7695H29.7859H29.7935H29.8084H29.816H29.831H29.8385H29.8597H29.8599H29.8824H29.8881L29.9045 58.9997H29.9124L29.9264 58.9995H29.9351L29.9489 58.9994H29.9572L29.9731 58.9993H29.9792L30.0008 58.9992H30.0072L30.0229 58.999L30.0308 58.9989L30.0454 58.9988L30.053 58.9987L30.0679 58.9985L30.0757 58.9984L30.0913 58.9983L30.0976 58.9982L30.1195 58.9979H30.1236L30.1416 58.9976L30.1491 58.9975L30.1635 58.9973L30.1718 58.9971L30.1863 58.9969L30.1939 58.9968L30.2094 58.9965L30.216 58.9964C30.2298 58.9961 30.2464 58.9959 30.2601 58.9956L30.2671 58.9955L30.2819 58.9953L30.2906 58.9951L30.304 58.9949L30.3128 58.9947L30.3265 58.9945L30.3348 58.9944L30.3523 58.994L30.3566 58.9939L30.3785 58.9934L30.3848 58.9932L30.4 58.9929L30.4089 58.9926L30.4223 58.9924L30.4307 58.9921L30.4452 58.9917L30.4527 58.9916L30.4691 58.9912L30.475 58.9911L30.4965 58.9906L30.5031 58.9905L30.5184 58.9901L30.5263 58.9898L30.5407 58.9895L30.5489 58.9892L30.5634 58.9888L30.5709 58.9886L30.5865 58.9881L30.5931 58.9879L30.615 58.9873L30.6172 58.9872L30.6366 58.9866L30.6442 58.9863L30.6588 58.9858L30.6669 58.9855L30.6813 58.9851L30.6888 58.9848L30.705 58.9843L30.7109 58.9842C30.7266 58.9837 30.7396 58.9832 30.7554 58.9827L30.7602 58.9825L30.7771 58.9819L30.7845 58.9816L30.7992 58.9811L30.8068 58.9809L30.8222 58.9804L30.8289 58.9801C30.8437 58.9796 30.858 58.979 30.8728 58.9785L30.8789 58.9782L30.895 58.9776L30.9021 58.9774L30.9171 58.9767L30.9244 58.9765L30.9401 58.9758L30.9465 58.9756L30.9646 58.9748L30.9685 58.9747L30.9909 58.9738L30.9933 58.9737L31.013 58.9728L31.0188 58.9726L31.0348 58.9718L31.0421 58.9714L31.0569 58.9708L31.0648 58.9704L31.0814 58.9697L31.0862 58.9694L31.1085 58.9684L31.111 58.9683L31.1305 58.9674L31.1369 58.9672L31.1521 58.9664L31.1599 58.966L31.175 58.9653L31.1819 58.9649L31.1976 58.9641L31.2041 58.9638L31.2238 58.9627L31.2276 58.9625L31.2476 58.9615L31.2552 58.9611L31.2697 58.9603L31.2776 58.96L31.2917 58.9592L31.2999 58.9588L31.3151 58.9581L31.3213 58.9577L31.3409 58.9567L31.3434 58.9566L31.3656 58.9553L31.3699 58.9551L31.3873 58.954L31.3944 58.9537L31.4092 58.9528L31.4171 58.9523L31.4308 58.9515L31.4392 58.951L31.4562 58.95L31.4606 58.9498L31.4831 58.9485L31.4846 58.9484L31.5048 58.9471L31.5105 58.9467L31.5265 58.9457L31.5338 58.9452L31.5496 58.9442L31.5554 58.9438L31.5739 58.9427L31.5775 58.9425C31.5921 58.9416 31.6073 58.9406 31.6218 58.9397L31.6272 58.9393L31.6442 58.9382L31.6502 58.9378L31.6664 58.9368L31.6725 58.9364L31.6899 58.9353L31.6946 58.935C31.7102 58.934 31.7235 58.9331 31.739 58.932L31.7433 58.9317L31.761 58.9305L31.7671 58.9301L31.7836 58.929L31.7892 58.9286L31.8064 58.9273L31.8115 58.927C31.8262 58.9259 31.8413 58.9248 31.8558 58.9238L31.8595 58.9235L31.878 58.9222L31.8832 58.9218L31.8996 58.9205L31.9062 58.92L31.9227 58.9188L31.9282 58.9184L31.9493 58.9167H31.9497L31.9727 58.915L31.9742 58.9149L31.9942 58.9133L32.0006 58.9128L32.0165 58.9116L32.0224 58.9111L32.0391 58.9098L32.0449 58.9093L32.064 58.9078L32.0663 58.9077C32.0818 58.9064 32.0961 58.9053 32.1116 58.904L32.1147 58.9038L32.1328 58.9023L32.1392 58.9018L32.1551 58.9005L32.1613 58.9L32.1786 58.8986L32.1831 58.8982C32.1986 58.897 32.2122 58.8958 32.2277 58.8944L32.231 58.8942L32.2498 58.8926L32.2544 58.8922L32.2722 58.8907L32.2772 58.8903L32.2963 58.8886L32.2989 58.8884C32.3144 58.887 32.329 58.8857 32.3445 58.8844H32.3449L32.3657 58.8825L32.3714 58.882L32.388 58.8805L32.3936 58.8799L32.4113 58.8783L32.4152 58.8779C32.4384 58.8758 32.459 58.8739 32.4821 58.8718L32.4864 58.8714L32.5045 58.8696L32.5092 58.8691L32.5274 58.8674L32.5314 58.867L32.5512 58.8651L32.5536 58.8648C32.569 58.8633 32.5827 58.8621 32.5982 58.8605L32.6024 58.8602L32.6203 58.8584L32.6257 58.8579L32.6421 58.8563L32.648 58.8556L32.6655 58.8539L32.67 58.8534C32.6854 58.8519 32.6986 58.8505 32.7141 58.849L32.7182 58.8486L32.7358 58.8468L32.7421 58.8462L32.7581 58.8445L32.7639 58.8439L32.781 58.8421L32.7859 58.8416C32.8013 58.84 32.8149 58.8386 32.8302 58.837L32.8319 58.8369L32.8524 58.8347L32.8561 58.8343L32.8745 58.8323L32.8787 58.8318L32.8976 58.8298L32.9011 58.8294L32.9218 58.8271L32.9232 58.827C32.9385 58.8254 32.9528 58.8237 32.9681 58.8221L32.9711 58.8217L32.9899 58.8196L32.9945 58.8191L33.0124 58.8171L33.0167 58.8166C33.0388 58.814 33.0612 58.8115 33.0833 58.809L33.0869 58.8086L33.1049 58.8066L33.1102 58.806L33.1279 58.804L33.132 58.8035L33.1514 58.8012L33.154 58.8009C33.1694 58.7992 33.184 58.7974 33.1992 58.7956C33.2001 58.7955 33.1988 58.7956 33.1996 58.7956L33.2208 58.7931L33.2244 58.7927L33.2429 58.7905L33.2473 58.79L33.2665 58.7877L33.269 58.7875C33.2844 58.7856 33.2988 58.7838 33.3141 58.7819L33.3147 58.7818L33.3362 58.7791L33.339 58.7788L33.3585 58.7764L33.362 58.776L33.3807 58.7736L33.3843 58.7731C33.4073 58.7702 33.4282 58.7675 33.4511 58.7646L33.4538 58.7643L33.4726 58.7619L33.4772 58.7612L33.4959 58.7588L33.4987 58.7585C33.5217 58.7556 33.5429 58.7527 33.5658 58.7498L33.5679 58.7495L33.588 58.7469L33.5909 58.7465L33.6105 58.7439L33.6133 58.7435L33.635 58.7406C33.6502 58.7386 33.6652 58.7365 33.6805 58.7344L33.6817 58.7343L33.7021 58.7315L33.7062 58.731L33.7244 58.7285L33.7282 58.728L33.7473 58.7253L33.7504 58.725C33.7733 58.7218 33.7945 58.7189 33.8173 58.7156L33.8193 58.7154L33.8388 58.7126L33.8428 58.712L33.8623 58.7092L33.8644 58.7089C33.8873 58.7057 33.9088 58.7026 33.9316 58.6994L33.9334 58.6991L33.9539 58.6961L33.956 58.6957L33.9764 58.6927L33.9785 58.6924C34.0088 58.688 34.0377 58.6837 34.068 58.6792L34.0698 58.679L34.0906 58.6758L34.0921 58.6755C34.1225 58.671 34.1513 58.6666 34.1817 58.6619L34.1841 58.6616L34.2032 58.6587L34.2073 58.658L34.2272 58.655L34.2284 58.6549C34.2511 58.6514 34.2726 58.648 34.2953 58.6444L34.2977 58.644L34.3178 58.6409L34.32 58.6405L34.3408 58.6372L34.3421 58.637C34.3724 58.6322 34.4018 58.6274 34.4319 58.6225L34.433 58.6224C34.4708 58.6162 34.5074 58.6101 34.5453 58.604L34.5465 58.6037L34.5678 58.6002L34.569 58.5999C34.6823 58.581 34.7947 58.5615 34.9076 58.5412L34.9297 58.5372L34.9305 58.5371C35.0057 58.5234 35.0802 58.5097 35.1552 58.4956H35.1556C35.193 58.4885 35.2304 58.4815 35.2677 58.4742C35.3052 58.467 35.3425 58.4597 35.3799 58.4524H35.3801C35.4998 58.4288 35.6191 58.4046 35.7381 58.3797H35.7383C46.5998 56.0812 55.2481 47.7992 58.0887 36.9752C58.8318 34.0992 57.1234 31.1601 54.2728 30.4104C53.8341 30.2963 53.3827 30.2375 52.9294 30.2375Z" fill="#F9D797"/>
<path d="M29.3848 58.9161H29.3586C18.4994 58.9202 8.51293 52.9758 3.35154 43.4353C2.64557 42.1311 3.13213 40.5023 4.43816 39.7975C5.74343 39.093 7.37354 39.5778 8.08015 40.8805C12.3018 48.6882 20.473 53.5534 29.3587 53.5497C30.8427 53.5425 32.0517 54.7379 32.059 56.2198C32.066 57.7017 30.8688 58.9089 29.3848 58.9161Z" fill="#FFCF06"/>
<path d="M42.1116 55.7076C40.6273 55.7089 39.4232 54.5085 39.4219 53.0263C39.421 52.04 39.9621 51.1327 40.8311 50.6635C48.663 46.4512 53.5454 38.284 53.5421 29.401C53.5421 27.9192 54.744 26.6627 56.2291 26.6627C57.7142 26.6627 58.9161 27.8078 58.9161 29.2895V29.4008C58.9205 40.2554 52.9559 50.2358 43.3869 55.3852C42.9951 55.5967 42.5568 55.7076 42.1116 55.7076Z" fill="#FFCF06"/>
<path d="M2.7517 32.45C1.24564 32.4631 0.0136736 31.2928 -5.01505e-08 29.8359C-5.01505e-08 29.8291 -5.01505e-08 29.8222 -5.01505e-08 29.8155V29.7596C-0.00270789 19.0131 6.08126 9.1288 15.8494 4.00979C17.185 3.3092 18.855 3.7887 19.5793 5.08071C20.3036 6.37272 19.8079 7.98814 18.4722 8.68873C10.4795 12.8781 5.50146 20.966 5.50352 29.7596C5.50623 31.2354 4.27736 32.4368 2.7517 32.45Z" fill="#F9D695"/>
<path d="M24.3375 34.6625H32.3365L32.8582 34.3644C44.5831 27.6644 54.0718 16.6005 58.8135 3.95622C59.2167 2.88109 58.9542 1.66961 58.1423 0.857703C57.3304 0.0457978 56.1189 -0.216671 55.0438 0.186531C42.3996 4.9281 31.3355 14.4169 24.6356 26.1417L24.3375 26.6634V34.6625Z" fill="#4141B8"/>
<path d="M53.1 0.737488C40.9707 5.82001 30.399 15.2582 23.9018 26.868L23.6 27.407V32.45C39.2511 29.9757 51.4963 16.9798 53.1 0.737488Z" fill="#5353C0"/>
<path d="M21.24 32.45C12.4422 32.45 5.31002 39.582 5.31002 48.3798C5.31002 48.3798 5.31002 48.3798 5.31002 48.3799V53.6899C5.31002 55.1562 4.12138 56.3449 2.65507 56.3449H1.32754C0.594386 56.3449 0 56.9393 0 57.6724C0 58.4056 0.594386 59 1.32754 59H5.31002C17.0406 59 26.55 49.4905 26.55 37.76L21.24 32.45Z" fill="#F7B236"/>
<path d="M23.9687 27.2875L21.3875 32.4499L26.5501 37.6125L31.7125 35.0313L23.9687 27.2875Z" fill="#FF4C60"/>
<path d="M45.9021 13.0412C49.9692 17.049 51.6494 22.2646 50.7739 26.55H59C57.637 11.6664 44.958 0 29.5 0V9.1525C34.1562 6.71248 40.9464 8.15738 45.9021 13.0412Z" fill="#FCE8C3"/>
<path d="M36.1375 53.1C39.8033 53.1 42.775 50.1282 42.775 46.4625C42.775 42.7967 39.8033 39.825 36.1375 39.825C32.4717 39.825 29.5 42.7967 29.5 46.4625C29.5 50.1282 32.4717 53.1 36.1375 53.1Z" fill="#FF4C60"/>
<path d="M13.275 29.5C17.7554 29.5 21.3875 25.8679 21.3875 21.3875C21.3875 16.9071 17.7554 13.275 13.275 13.275C8.79459 13.275 5.1625 16.9071 5.1625 21.3875C5.1625 25.8679 8.79459 29.5 13.275 29.5Z" fill="#F9D797"/>
<path d="M13.275 26.55C17.7554 26.55 21.3875 22.9179 21.3875 18.4375C21.3875 13.9571 17.7554 10.325 13.275 10.325C8.79459 10.325 5.1625 13.9571 5.1625 18.4375C5.1625 22.9179 8.79459 26.55 13.275 26.55Z" fill="#5353C0"/>
<path d="M49.4125 42.775C51.8564 42.775 53.8375 40.7939 53.8375 38.35C53.8375 35.9062 51.8564 33.925 49.4125 33.925C46.9686 33.925 44.9875 35.9062 44.9875 38.35C44.9875 40.7939 46.9686 42.775 49.4125 42.775Z" fill="#F7B236"/>
<path d="M11.0625 19.175C12.6917 19.175 14.0125 17.8543 14.0125 16.225C14.0125 14.5958 12.6917 13.275 11.0625 13.275C9.43326 13.275 8.1125 14.5958 8.1125 16.225C8.1125 17.8543 9.43326 19.175 11.0625 19.175Z" fill="#6C6CE5"/>
<path d="M35.4 48.675C37.0292 48.675 38.35 47.3543 38.35 45.725C38.35 44.0958 37.0292 42.775 35.4 42.775C33.7708 42.775 32.45 44.0958 32.45 45.725C32.45 47.3543 33.7708 48.675 35.4 48.675Z" fill="#FFA1AC"/>
<path d="M49.449 40.563C50.1968 40.563 50.803 39.966 50.803 39.2296C50.803 38.4932 50.1968 37.8962 49.449 37.8962C48.7012 37.8962 48.0951 38.4932 48.0951 39.2296C48.0951 39.966 48.7012 40.563 49.449 40.563Z" fill="#FBDEA9"/>
<path d="M20.3027 35.8625C18.8184 34.3783 15.5196 35.2706 12.9346 37.8557C10.3495 40.4407 9.45716 43.7395 10.9414 45.2238C12.4257 46.708 15.7245 45.8157 18.3095 43.2306C20.8946 40.6456 21.7869 37.3467 20.3027 35.8625Z" fill="#FBDEA9"/>
<path d="M42.5276 13.7111C41.4854 12.6689 38.3895 14.075 35.6127 16.8517C32.836 19.6285 31.4299 22.7243 32.4721 23.7666C33.5143 24.8088 36.6102 23.4027 39.3869 20.6259C42.1637 17.8492 43.5698 14.7533 42.5276 13.7111Z" fill="#6C6CE5"/>
<path d="M0.790527 59H5.42801C6.97097 58.992 8.51033 58.8464 10.0285 58.565C19.4847 56.3725 26.55 47.7563 26.55 37.4404L25.9961 36.875C23.8341 46.5077 15.4029 53.7005 5.31003 53.7005C5.31003 55.1972 4.12138 56.4105 2.65508 56.4105H1.32754C0.595883 56.4089 0.0014966 57.0131 1.45313e-07 57.7599C-0.00111691 58.2967 0.309144 58.7835 0.790527 59Z" fill="#FFCF06"/>
<path d="M26.8404 37.6125L24.4714 35.2668C23.566 34.3702 23.3415 33.0005 23.9141 31.8665C24.6489 30.4115 26.4358 29.8216 27.9054 30.5492C28.1913 30.6908 28.4524 30.8771 28.6786 31.101L32.45 34.8352L26.8404 37.6125Z" fill="#D93144"/>
</svg>
