<svg width="59" height="51" viewBox="0 0 59 51" fill="none" xmlns="http://www.w3.org/2000/svg">
<path d="M58.443 5.58357V13.6923H0V5.58357C0 2.50006 2.55298 0 5.70175 0H52.7412C55.89 0 58.443 2.50006 58.443 5.58357Z" fill="#F8EC7D"/>
<path d="M25.7592 5.20393C26.9519 5.20773 27.9152 6.15155 27.9113 7.3121C27.9074 8.47265 26.9374 9.41052 25.7448 9.40674C24.5521 9.40293 23.5888 8.45911 23.5927 7.29856C23.5971 6.13801 24.5665 5.20068 25.7592 5.20393Z" fill="#E48E66"/>
<path d="M58.443 14.0239V44.8142C58.443 47.8787 55.89 50.3623 52.7412 50.3623H5.70175C2.55298 50.3623 0 47.8787 0 44.8142V14.0239H58.443Z" fill="#EEC251"/>
<path d="M16.0573 5.17464C17.25 5.17845 18.2139 6.12227 18.21 7.28282C18.2061 8.44337 17.2361 9.38124 16.0434 9.37745C14.8507 9.37365 13.8869 8.42982 13.8908 7.26928C13.8924 6.71176 14.1218 6.17754 14.5278 5.78473C14.9342 5.39192 15.4849 5.17249 16.0573 5.17464Z" fill="#E48E66"/>
<path d="M6.356 5.1443C7.54925 5.14757 8.51364 6.0914 8.50976 7.25249C8.50641 8.41358 7.53644 9.35199 6.34319 9.3482C5.14995 9.34494 4.18555 8.40112 4.18943 7.24003C4.19056 6.68251 4.41997 6.14829 4.82644 5.75493C5.23291 5.36212 5.78304 5.14215 6.356 5.1443Z" fill="#E48E66"/>
<path d="M23.0488 36.7981C22.8082 36.7986 22.5749 36.715 22.3915 36.5631L15.8269 31.1308C15.6004 30.9431 15.4702 30.6686 15.4702 30.3798C15.4702 30.0909 15.6004 29.8164 15.8269 29.6293L22.3915 24.197C22.8184 23.8437 23.4588 23.8938 23.8217 24.3081C24.1852 24.7229 24.1343 25.3452 23.7073 25.6984L18.0504 30.3798L23.7079 35.0617C24.0318 35.3297 24.149 35.7654 24.0023 36.1533C23.8551 36.5411 23.4752 36.7986 23.0494 36.7981H23.0488Z" fill="#D7AD41"/>
<path d="M35.3942 36.7981C34.9684 36.7986 34.5884 36.5411 34.4412 36.1533C34.2946 35.7654 34.4118 35.3297 34.7357 35.0617L40.393 30.3798L34.7351 25.6984C34.3081 25.3452 34.2572 24.7229 34.6207 24.3081C34.9837 23.8938 35.6241 23.8437 36.051 24.197L42.6161 29.6293C42.8426 29.8164 42.9728 30.0909 42.9728 30.3798C42.9728 30.6686 42.8426 30.9431 42.6161 31.1308L36.051 36.5631C35.8676 36.715 35.6348 36.7981 35.3942 36.7981Z" fill="#D7AD41"/>
<path d="M26.7821 41.0769C26.481 41.0769 26.1967 40.9446 26.0069 40.7176C25.8177 40.49 25.7431 40.1919 25.8049 39.9052L29.8266 21.3095C29.9402 20.7844 30.4688 20.449 31.0081 20.5595C31.5467 20.6701 31.8918 21.1849 31.7782 21.71L27.7565 40.3057C27.6597 40.7544 27.2529 41.0763 26.7821 41.0769Z" fill="#D7AD41"/>
</svg>
