<svg width="69" height="46" viewBox="0 0 69 46" fill="none" xmlns="http://www.w3.org/2000/svg">
<g clip-path="url(#clip0)">
<path d="M5.07026 44.5783C6.491 45.4514 8.30682 45.3558 9.63772 44.3571C12.1034 42.5047 14.9627 39.4827 17.8913 36.252C19.3569 34.498 21.1987 33.4775 23.7115 33.7637H45.2888C47.7999 33.4767 49.6434 34.4972 51.1065 36.252C51.1858 36.3402 51.265 36.4262 51.3442 36.5119C54.1902 39.6447 56.9639 42.5542 59.3603 44.3571C60.0105 44.8467 60.7951 45.1299 61.6107 45.1693C62.4264 45.2088 63.235 45.0028 63.9303 44.5783C67.4506 42.4267 68.4877 38.3851 68.0918 33.4139C68.0893 33.3672 68.0843 33.3208 68.0792 33.2715C67.9978 32.2585 67.8516 31.2084 67.656 30.1268C67.6564 30.1209 67.6555 30.115 67.6535 30.1094C67.6387 30.0265 67.6214 29.9402 67.6066 29.857C66.678 24.867 64.7101 19.2616 62.5548 13.8158C61.9158 12.2041 61.2624 10.6086 60.6137 9.04202C60.4256 8.59053 60.2401 8.13682 60.0556 7.69279L58.1862 6.63054L58.1567 6.53239L57.7532 5.06538C57.6668 4.75114 57.5125 4.45927 57.3009 4.21001C57.0894 3.96076 56.8257 3.76007 56.528 3.62186C53.8495 2.3658 51.0842 1.43765 48.2176 0.89879C48.1434 0.884136 48.0714 0.869483 47.9972 0.857317C47.4454 0.759434 46.8766 0.864954 46.3979 1.15398L44.2913 2.42718C43.6219 2.8349 42.8514 3.05063 42.0656 3.05037H26.9322C26.1466 3.04994 25.3764 2.83426 24.7067 2.42718L22.6024 1.15537C22.1232 0.865278 21.5534 0.759153 21.0006 0.857041C18.0598 1.39065 15.2202 2.33263 12.4717 3.62186C12.1745 3.7611 11.9112 3.96229 11.6997 4.21166C11.4882 4.46103 11.3335 4.75271 11.2462 5.06676L10.8154 6.63193L8.94604 7.69417C8.74794 8.16751 8.54761 8.64831 8.34951 9.13188C5.48264 16.0426 2.51449 23.6195 1.34625 30.1169C0.183319 36.5736 0.79966 41.9655 5.07026 44.5783Z" fill="#5E6C7A"/>
<path d="M61.8107 45.2487C62.573 45.248 63.32 45.0361 63.9672 44.6369C67.2316 42.6412 68.6044 38.969 68.1613 33.4084C68.1591 33.3647 68.1543 33.3191 68.1493 33.2702C68.0703 32.2884 67.9317 31.2574 67.7246 30.1133C67.7246 30.1133 67.7266 30.1066 67.7213 30.0903C67.714 30.0502 67.7062 30.0096 67.6987 29.969C67.6912 29.9283 67.6825 29.886 67.6753 29.8437C66.6429 24.2917 64.2947 18.0224 62.619 13.7895C62.0626 12.3858 61.4457 10.8687 60.6776 9.01466C60.5908 8.80646 60.5046 8.59772 60.4187 8.39008C60.3182 8.14678 60.2179 7.90513 60.1179 7.66515L60.1087 7.6433L58.2432 6.58327L58.2214 6.51139L57.8185 5.04603C57.7304 4.72179 57.5719 4.42053 57.3542 4.16327C57.1364 3.90602 56.8645 3.69898 56.5576 3.55662C53.8138 2.27126 51.012 1.35472 48.2307 0.829402L48.1973 0.822766C48.1339 0.810048 48.0723 0.797883 48.0086 0.787376C47.4406 0.686591 46.8551 0.795367 46.3625 1.09317L44.2556 2.36664C43.5972 2.76766 42.8394 2.97985 42.0665 2.9796H26.933C26.1602 2.97919 25.4026 2.76705 24.7439 2.36664L22.6398 1.09482C22.146 0.795994 21.5586 0.687183 20.9892 0.789035C18.1312 1.30716 15.2563 2.23946 12.4424 3.558C12.1361 3.70135 11.8646 3.90861 11.6467 4.16558C11.4287 4.42256 11.2694 4.72318 11.1796 5.04686L10.7563 6.58465L8.89165 7.64441L8.88245 7.66625C8.68435 8.13987 8.48374 8.62094 8.28592 9.10396C5.32362 16.2444 2.42439 23.7299 1.27819 30.1019C-0.0580063 37.5191 1.17049 42.2735 5.03344 44.6366C6.462 45.5147 8.32916 45.4246 9.67987 44.4124C12.1812 42.5323 15.1296 39.402 17.9432 36.2982C19.5467 34.3791 21.4309 33.5737 23.7034 33.8331H45.2888C47.5723 33.5723 49.4537 34.3783 51.0527 36.2954C51.1294 36.3811 51.2048 36.4613 51.2798 36.5443L51.2926 36.5584C54.0022 39.5397 56.8501 42.555 59.3179 44.4104C60.0344 44.9517 60.9097 45.2461 61.8107 45.2487ZM67.5863 30.1315V30.139C67.7922 31.2787 67.9306 32.305 68.0087 33.2771C68.0143 33.3307 68.0187 33.3741 68.021 33.4175C68.4598 38.9226 67.1091 42.5536 63.8915 44.5194C62.4895 45.3795 60.7264 45.2935 59.3994 44.3023C56.9407 42.4524 54.0981 39.4426 51.3917 36.466L51.3786 36.4516C51.3041 36.3706 51.2293 36.2896 51.1554 36.2064C49.5254 34.2519 47.6016 33.4308 45.2774 33.6959H23.7082C21.3923 33.4308 19.4671 34.2525 17.8344 36.2083C15.0269 39.3049 12.0841 42.4308 9.59227 44.3026C8.28732 45.2808 6.48376 45.3679 5.10376 44.5197C1.29521 42.1895 0.0876312 37.4818 1.41239 30.1268C2.55635 23.7677 5.45253 16.2903 8.41203 9.15677C8.60734 8.68094 8.80265 8.2076 8.99796 7.74118L10.8715 6.67645L11.3099 5.08391C11.3942 4.77939 11.5441 4.49655 11.7491 4.25479C11.9541 4.01302 12.2095 3.81806 12.4976 3.68325C15.3006 2.36968 18.1644 1.44126 21.009 0.923959C21.5447 0.828295 22.0973 0.930703 22.562 1.21178L24.6702 2.4847C25.3508 2.89853 26.1337 3.11775 26.9322 3.11812H42.0656C42.8642 3.11837 43.6473 2.8991 44.3276 2.4847L46.4344 1.2115C46.8985 0.931227 47.45 0.828946 47.9849 0.923959C48.0477 0.934188 48.1083 0.946354 48.1696 0.958519L48.204 0.965431C50.9757 1.48688 53.7658 2.4012 56.4985 3.68297C56.787 3.81688 57.0426 4.01156 57.2473 4.25343C57.4521 4.49529 57.6011 4.77853 57.684 5.08336L58.1257 6.67672L59.9982 7.74146C60.0953 7.9737 60.1921 8.20843 60.2895 8.444C60.3756 8.65191 60.462 8.86019 60.5487 9.06885C61.3165 10.9213 61.9331 12.4386 62.4889 13.8415C64.163 18.0692 66.5067 24.3301 67.5391 29.87C67.5464 29.9112 67.5544 29.9529 67.5625 29.9963C67.5706 30.0397 67.5787 30.0793 67.586 30.1221L67.5863 30.1315Z" fill="#081241"/>
<g opacity="0.3">
<path opacity="0.3" d="M27.7673 3.04899C27.7374 3.18143 27.7201 3.25995 27.7201 3.25995L25.0117 7.69528L24.1468 7.28553C22.5525 4.1552 19.5051 4.5796 19.5051 4.5796L20.7266 1.09371L20.8103 0.897409C20.8845 0.882756 20.9562 0.868102 21.0305 0.855937C21.5822 0.758028 22.1511 0.863549 22.6298 1.1526L24.7372 2.4258C25.4065 2.83351 26.1769 3.04924 26.9626 3.04899H27.7673Z" fill="#081241"/>
</g>
<g opacity="0.3">
<path opacity="0.3" d="M41.2613 3.04904C41.2908 3.18148 41.3081 3.26 41.3081 3.26L44.0165 7.69532L44.8815 7.28558C46.4758 4.15525 49.5234 4.57965 49.5234 4.57965L48.3016 1.09376L48.2179 0.897456C48.1437 0.882803 48.0717 0.868149 47.9975 0.855984C47.4457 0.758101 46.8769 0.86362 46.3982 1.15265L44.2916 2.42585C43.6222 2.83357 42.8517 3.04929 42.0659 3.04904H41.2613Z" fill="#081241"/>
</g>
<path d="M1.34686 30.1144C2.51537 23.6171 5.48353 16.0415 8.35012 9.12941C8.54822 8.64612 8.74855 8.16532 8.94665 7.6917L10.816 6.62946L18.3347 4.73998C19.2767 4.50321 20.2656 4.52081 21.1984 4.79095C22.1313 5.0611 22.9741 5.57392 23.6393 6.27611L26.6981 9.50819C27.0895 9.92164 27.5624 10.2512 28.0874 10.4764C28.6124 10.7017 29.1784 10.8179 29.7505 10.8179H39.2496C39.8216 10.8179 40.3876 10.7016 40.9126 10.4764C41.4375 10.2511 41.9103 9.92161 42.3017 9.50819L45.3605 6.27611C46.0256 5.57373 46.8683 5.06069 47.8012 4.79035C48.7341 4.52001 49.723 4.50224 50.6652 4.73887L58.1846 6.62973L60.054 7.69198C60.2398 8.13601 60.4254 8.58972 60.612 9.04121C61.2616 10.6069 61.915 12.2042 62.5548 13.8158C64.711 19.2625 66.6792 24.8671 67.6075 29.857C67.6223 29.94 67.6396 30.0262 67.6543 30.1094C67.6564 30.115 67.6573 30.1209 67.6569 30.1269C67.8522 31.2085 67.9987 32.2585 68.0801 33.2716C68.0851 33.3208 68.0902 33.3672 68.0927 33.4139C68.4886 38.384 67.4509 42.4273 63.9312 44.5783C63.2359 45.0028 62.4273 45.2088 61.6116 45.1694C60.7959 45.1299 60.0114 44.8467 59.3612 44.3571C56.9648 42.5542 54.1922 39.6448 51.3451 36.5119C51.2659 36.4262 51.1866 36.3402 51.1074 36.252C49.6443 34.498 47.8 33.4775 45.2897 33.7637H23.7124C21.1996 33.4767 19.3578 34.4972 17.8921 36.252C14.9625 39.4827 12.1043 42.505 9.63861 44.3571C8.30659 45.3555 6.49189 45.4512 5.07114 44.5783C0.799713 41.9655 0.183372 36.5736 1.34686 30.1144Z" fill="white"/>
<g opacity="0.3">
<path opacity="0.3" d="M5.07026 44.5766C6.491 45.4514 8.30544 45.3546 9.63689 44.3571C12.1042 42.5046 14.9627 39.4816 17.8901 36.2501C19.3566 34.4977 21.2001 33.4775 23.7104 33.7653H45.2894C47.8005 33.4775 49.642 34.4977 51.1068 36.2501C51.1847 36.3385 51.265 36.4267 51.3456 36.5122C54.1916 39.6439 56.9647 42.5533 59.3601 44.3571C60.6946 45.3546 62.5062 45.4514 63.9295 44.5766C67.4495 42.425 68.4875 38.3834 68.0907 33.412C68.0895 33.3657 68.0857 33.3196 68.0793 33.2737C68.0675 33.1228 68.0533 32.9715 68.036 32.8178C67.6507 35.8627 66.4052 38.3104 63.9295 39.8206C62.5065 40.6953 60.6946 40.5986 59.3601 39.6013C56.9647 37.7975 54.1924 34.8881 51.3456 31.7564C51.265 31.6679 51.1847 31.5825 51.1068 31.4943C49.6431 29.7417 47.7999 28.7214 45.2894 29.006H23.7104C22.9425 28.9175 22.2352 28.9545 21.5823 29.0942C21.5795 29.0972 21.5795 29.0942 21.5795 29.0942C20.1217 27.7919 19.4802 25.7119 20.0843 23.7771C20.1122 23.6886 20.1418 23.6004 20.1733 23.5147C20.461 22.7456 19.5595 22.0815 18.9138 22.5916C18.8734 22.6228 18.8363 22.6543 18.7989 22.6856C18.0397 23.3154 17.4616 24.1703 17.1625 25.1933C16.716 26.7479 17.0615 28.3883 17.987 29.6319C18.4007 30.1885 18.3461 30.9521 17.8991 31.4843L17.8901 31.4951C14.9627 34.7264 12.1042 37.7497 9.63689 39.6021C8.30544 40.5994 6.491 40.6962 5.07026 39.8214C2.59429 38.3085 1.34626 35.8605 0.96373 32.8115C0.434723 38.0538 1.40959 42.3368 5.07026 44.5766Z" fill="#081241"/>
</g>
<path d="M43.2453 30.11C40.3018 30.11 37.9156 27.7454 37.9156 24.8286C37.9156 21.9118 40.3018 19.5472 43.2453 19.5472C46.1889 19.5472 48.5751 21.9118 48.5751 24.8286C48.5751 27.7454 46.1889 30.11 43.2453 30.11Z" fill="#D0D4D8"/>
<path d="M43.2453 30.1791C46.2224 30.1791 48.6448 27.7789 48.6448 24.8286C48.6448 21.8783 46.2224 19.4784 43.2453 19.4784C40.2682 19.4784 37.8458 21.8785 37.8458 24.828C37.8458 27.7776 40.2682 30.1791 43.2453 30.1791ZM43.2453 19.6175C46.1456 19.6175 48.5053 21.9557 48.5053 24.8294C48.5053 27.7032 46.1456 30.0417 43.2453 30.0417C40.3449 30.0417 37.9853 27.7035 37.9853 24.828C37.9853 21.9526 40.3452 19.6166 43.2453 19.6166V19.6175Z" fill="#081241"/>
<g opacity="0.3">
<path opacity="0.3" d="M38.9342 21.7254C39.5709 21.4688 40.2519 21.3373 40.9392 21.3383C43.8834 21.3383 46.2684 23.7039 46.2684 26.6191C46.2707 27.7342 45.9143 28.8211 45.2508 29.7218C46.2338 29.3269 47.0754 28.6501 47.6679 27.7783C48.2603 26.9064 48.5765 25.8791 48.5761 24.8281C48.5761 21.9125 46.1889 19.5472 43.2469 19.5472C42.4054 19.5462 41.5757 19.7431 40.8259 20.1218C40.0762 20.5005 39.4278 21.05 38.9342 21.7254Z" fill="#102770"/>
<path opacity="0.3" d="M44.9997 29.9153L45.2838 29.802C46.2844 29.4029 47.1412 28.7156 47.7436 27.8289C48.3459 26.9422 48.666 25.8969 48.6626 24.8281C48.6626 21.8697 46.2327 19.4604 43.2456 19.4604C42.3912 19.4622 41.5493 19.6636 40.7881 20.0483C40.027 20.4329 39.3682 20.99 38.865 21.6742L38.6851 21.9195L38.9686 21.805C39.5946 21.5521 40.2645 21.4225 40.9406 21.4235C43.8312 21.4235 46.183 23.7539 46.183 26.6183C46.1864 27.7156 45.8355 28.7851 45.1816 29.6707L44.9997 29.9153ZM43.2456 19.6333C46.1364 19.6333 48.4882 21.9634 48.4882 24.8278C48.4913 25.8109 48.2115 26.7745 47.6815 27.6056C47.1516 28.4368 46.3935 29.1009 45.4961 29.5202C46.0606 28.6556 46.3594 27.647 46.356 26.6172C46.356 23.6588 43.9261 21.2496 40.9392 21.2496C40.3443 21.2493 39.7534 21.3467 39.1907 21.5379C39.683 20.9439 40.3019 20.4651 41.0029 20.1359C41.704 19.8067 42.4698 19.6353 43.2456 19.6338V19.6333Z" fill="#081241"/>
</g>
<path d="M43.2453 30.6286C46.4726 30.6286 49.0984 28.0269 49.0984 24.8286C49.0984 21.6302 46.4726 19.0288 43.2453 19.0288C40.0179 19.0288 37.3921 21.6305 37.3921 24.8286C37.3921 28.0266 40.0179 30.6286 43.2453 30.6286ZM43.2453 20.067C45.8959 20.067 48.0516 22.2034 48.0516 24.8294C48.0516 27.4554 45.8954 29.5921 43.2453 29.5921C40.5952 29.5921 38.439 27.4546 38.439 24.828C38.439 22.2014 40.5963 20.0662 43.2453 20.0662V20.067Z" fill="#566475"/>
<path d="M22.7554 27.49C21.2721 26.0202 21.2721 23.6371 22.7554 22.1672C24.2387 20.6974 26.6436 20.6974 28.1269 22.1672C29.6102 23.6371 29.6102 26.0202 28.1269 27.49C26.6436 28.9598 24.2387 28.9598 22.7554 27.49Z" fill="#5E6C7A"/>
<path d="M25.4412 28.6788C27.5837 28.6788 29.3264 26.9516 29.3264 24.8285C29.3264 22.7054 27.5837 20.9785 25.4412 20.9785C23.2986 20.9785 21.5559 22.7057 21.5559 24.828C21.5559 26.9503 23.2975 28.6788 25.4412 28.6788ZM25.4412 21.1516C27.4874 21.1516 29.152 22.8011 29.152 24.8288C29.152 26.8565 27.4874 28.506 25.4412 28.506C23.3949 28.506 21.7303 26.8565 21.7303 24.8288C21.7303 22.8011 23.3951 21.1508 25.4412 21.1508V21.1516Z" fill="#081241"/>
<path d="M22.7554 27.49C21.2721 26.0202 21.2721 23.6371 22.7554 22.1672C24.2387 20.6974 26.6436 20.6974 28.1269 22.1672C29.6102 23.6371 29.6102 26.0202 28.1269 27.49C26.6436 28.9598 24.2387 28.9598 22.7554 27.49Z" fill="#D0D4D8"/>
<path d="M25.4411 28.6614C27.5739 28.6614 29.3091 26.942 29.3091 24.8286C29.3091 22.7151 27.5739 20.996 25.4411 20.996C23.3083 20.996 21.5734 22.7154 21.5734 24.828C21.5734 26.9406 23.3083 28.6614 25.4411 28.6614ZM25.4411 21.1342C27.4972 21.1342 29.1696 22.7914 29.1696 24.8286C29.1696 26.8657 27.4972 28.5232 25.4411 28.5232C23.385 28.5232 21.7129 26.866 21.7129 24.828C21.7129 22.7901 23.3853 21.1342 25.4411 21.1342Z" fill="#081241"/>
<path d="M25.4411 29.111C27.8242 29.111 29.7628 27.19 29.7628 24.8285C29.7628 22.4671 27.8242 20.5464 25.4411 20.5464C23.058 20.5464 21.1197 22.4674 21.1197 24.828C21.1197 27.1886 23.0583 29.111 25.4411 29.111ZM25.4411 21.5837C26.0888 21.5837 26.7221 21.774 27.2606 22.1306C27.7992 22.4871 28.219 22.994 28.4669 23.587C28.7148 24.18 28.7796 24.8325 28.6532 25.462C28.5268 26.0916 28.2149 26.6698 27.7568 27.1236C27.2988 27.5775 26.7152 27.8865 26.0799 28.0116C25.4445 28.1368 24.7861 28.0724 24.1877 27.8267C23.5893 27.5809 23.0779 27.1649 22.7181 26.6311C22.3584 26.0973 22.1664 25.4699 22.1666 24.828C22.1678 23.9678 22.5132 23.1432 23.127 22.5351C23.7409 21.9269 24.5731 21.5848 25.4411 21.5837Z" fill="#566475"/>
<path d="M25.4411 26.6194C24.443 26.6194 23.6339 25.8176 23.6339 24.8286C23.6339 23.8396 24.443 23.0378 25.4411 23.0378C26.4392 23.0378 27.2483 23.8396 27.2483 24.8286C27.2483 25.8176 26.4392 26.6194 25.4411 26.6194Z" fill="#566475"/>
<path d="M48.9131 16.8782C47.4298 15.4083 47.4298 13.0253 48.9131 11.5554C50.3964 10.0856 52.8013 10.0856 54.2846 11.5554C55.7679 13.0253 55.7679 15.4083 54.2846 16.8782C52.8013 18.348 50.3964 18.348 48.9131 16.8782Z" fill="#5E6C7A"/>
<path d="M51.5985 18.067C53.741 18.067 55.484 16.3398 55.484 14.2167C55.484 12.0936 53.741 10.368 51.5985 10.368C49.4559 10.368 47.7135 12.0938 47.7135 14.2167C47.7135 16.3395 49.4562 18.067 51.5985 18.067ZM51.5985 10.5395C53.6447 10.5395 55.3093 12.1892 55.3093 14.2167C55.3093 16.2441 53.6445 17.8939 51.5985 17.8939C49.5524 17.8939 47.8876 16.2444 47.8876 14.2167C47.8876 12.189 49.5527 10.5395 51.5985 10.5395Z" fill="#081241"/>
<g opacity="0.3">
<path opacity="0.3" d="M44.1956 16.8299C44.3853 19.2684 46.344 21.2652 48.7968 21.5204C49.5342 21.5985 50.28 21.5179 50.983 21.2841C51.6861 21.0503 52.3299 20.6688 52.8704 20.1656C53.2147 19.6381 52.8805 19.2554 52.3704 19.2751C52.0274 19.327 51.6799 19.3444 51.3333 19.3268C48.719 19.199 46.5801 17.0873 46.4414 14.4964C46.4364 14.4057 46.4339 14.3125 46.4339 14.2215C46.4316 13.3998 45.3571 13.0857 44.9288 13.7875C44.9009 13.8317 44.8767 13.8734 44.8521 13.9149C44.3442 14.7997 44.1156 15.815 44.1956 16.8299Z" fill="#081241"/>
</g>
<path d="M48.9131 16.8782C47.4298 15.4083 47.4298 13.0253 48.9131 11.5554C50.3964 10.0856 52.8013 10.0856 54.2846 11.5554C55.7679 13.0253 55.7679 15.4083 54.2846 16.8782C52.8013 18.348 50.3964 18.348 48.9131 16.8782Z" fill="#D0D4D8"/>
<path d="M51.5984 18.7178C54.1023 18.7178 56.1394 16.6995 56.1394 14.2181C56.1394 11.7367 54.1026 9.71863 51.5984 9.71863C49.0943 9.71863 47.058 11.7369 47.058 14.2181C47.058 16.6992 49.0948 18.7178 51.5984 18.7178ZM51.5984 11.1903C52.2028 11.1903 52.7937 11.3679 53.2962 11.7006C53.7987 12.0333 54.1904 12.5062 54.4217 13.0596C54.6529 13.6129 54.7134 14.2217 54.5954 14.8091C54.4775 15.3965 54.1863 15.936 53.7589 16.3594C53.3314 16.7828 52.7869 17.0711 52.1941 17.1878C51.6013 17.3045 50.9868 17.2444 50.4285 17.015C49.8702 16.7856 49.3931 16.3974 49.0575 15.8993C48.7219 15.4012 48.543 14.8156 48.5432 14.2167C48.5442 13.414 48.8664 12.6445 49.4391 12.0769C50.0119 11.5093 50.7884 11.19 51.5984 11.189V11.1903Z" fill="#566475"/>
<path d="M51.5987 16.0075C50.6006 16.0075 49.7915 15.2057 49.7915 14.2167C49.7915 13.2277 50.6006 12.4259 51.5987 12.4259C52.5968 12.4259 53.4059 13.2277 53.4059 14.2167C53.4059 15.2057 52.5968 16.0075 51.5987 16.0075Z" fill="#566475"/>
<path d="M17.1703 12.6106C16.0094 12.6106 15.0682 11.678 15.0682 10.5276C15.0682 9.37718 16.0094 8.44458 17.1703 8.44458C18.3313 8.44458 19.2724 9.37718 19.2724 10.5276C19.2724 11.678 18.3313 12.6106 17.1703 12.6106Z" fill="#E5C62C"/>
<path d="M39.561 23.896V25.7615C39.561 25.8723 39.6053 25.9787 39.6844 26.0572C39.7634 26.1356 39.8707 26.1798 39.9825 26.18H41.7654V27.9468C41.7654 28.0578 41.81 28.1643 41.8892 28.2428C41.9684 28.3213 42.0758 28.3654 42.1879 28.3654H44.0684C44.1805 28.3654 44.2879 28.3213 44.3671 28.2428C44.4463 28.1643 44.4909 28.0578 44.4909 27.9468V26.18H46.2749C46.3303 26.18 46.3853 26.1692 46.4365 26.1482C46.4877 26.1271 46.5343 26.0963 46.5735 26.0574C46.6127 26.0186 46.6438 25.9724 46.665 25.9216C46.6862 25.8708 46.6971 25.8164 46.697 25.7615V23.896C46.6971 23.8411 46.6862 23.7866 46.665 23.7359C46.6438 23.6851 46.6127 23.6389 46.5735 23.6001C46.5343 23.5612 46.4877 23.5303 46.4365 23.5093C46.3853 23.4883 46.3303 23.4774 46.2749 23.4774H44.4917V21.7107C44.4917 21.5997 44.4472 21.4932 44.368 21.4147C44.2887 21.3362 44.1813 21.2921 44.0693 21.2921H42.1887C42.0767 21.2921 41.9692 21.3362 41.89 21.4147C41.8108 21.4932 41.7663 21.5997 41.7663 21.7107V23.4774H39.9825C39.8707 23.4777 39.7634 23.5218 39.6844 23.6003C39.6053 23.6788 39.561 23.7852 39.561 23.896Z" fill="#566475"/>
<path d="M12.8505 16.8914C11.6896 16.8914 10.7484 15.9588 10.7484 14.8084C10.7484 13.6579 11.6896 12.7253 12.8505 12.7253C14.0115 12.7253 14.9526 13.6579 14.9526 14.8084C14.9526 15.9588 14.0115 16.8914 12.8505 16.8914Z" fill="#E52C5C"/>
<path d="M21.4902 16.8914C20.3293 16.8914 19.3882 15.9588 19.3882 14.8084C19.3882 13.6579 20.3293 12.7253 21.4902 12.7253C22.6512 12.7253 23.5923 13.6579 23.5923 14.8084C23.5923 15.9588 22.6512 16.8914 21.4902 16.8914Z" fill="#5E7DEF"/>
<g opacity="0.3">
<path opacity="0.3" d="M13.8088 11.9907C13.8087 12.4828 13.9845 12.959 14.3048 13.335C14.6252 13.711 15.0695 13.9625 15.5591 14.045C16.0487 14.1275 16.5519 14.0355 16.9796 13.7855C17.4074 13.5355 17.732 13.1436 17.8961 12.6791C17.5759 12.8517 17.216 12.9389 16.8516 12.932C16.4872 12.9251 16.1308 12.8245 15.8176 12.6399C15.5043 12.4553 15.2448 12.1932 15.0647 11.8792C14.8846 11.5652 14.7899 11.2102 14.7901 10.8491C14.7903 10.6147 14.8301 10.382 14.9078 10.1606C14.5752 10.3393 14.2975 10.6036 14.1041 10.9257C13.9106 11.2479 13.8086 11.6158 13.8088 11.9907Z" fill="#081241"/>
<path opacity="0.3" d="M13.8088 20.552C13.8087 21.0441 13.9845 21.5203 14.3048 21.8963C14.6252 22.2723 15.0695 22.5238 15.5591 22.6063C16.0487 22.6888 16.5519 22.5969 16.9796 22.3469C17.4074 22.0969 17.732 21.7049 17.8961 21.2404C17.523 21.4412 17.0973 21.5254 16.675 21.4818C16.2527 21.4383 15.8537 21.2691 15.5303 20.9965C15.2069 20.7239 14.9743 20.3607 14.8632 19.9547C14.7521 19.5487 14.7677 19.1188 14.9078 18.7217C14.5752 18.9003 14.2975 19.1647 14.104 19.4869C13.9106 19.8091 13.8086 20.1771 13.8088 20.552Z" fill="#081241"/>
<path opacity="0.3" d="M9.48986 16.2723C9.49058 16.764 9.6667 17.2396 9.98708 17.615C10.3075 17.9905 10.7515 18.2416 11.2406 18.3239C11.7298 18.4063 12.2326 18.3147 12.6602 18.0653C13.0877 17.8158 13.4125 17.4246 13.5771 16.9608C13.2568 17.1333 12.8968 17.2203 12.5323 17.2134C12.1678 17.2065 11.8114 17.1058 11.498 16.9212C11.1847 16.7367 10.9251 16.4746 10.7447 16.1606C10.5643 15.8467 10.4694 15.4917 10.4692 15.1305C10.4693 14.8961 10.5091 14.6634 10.5869 14.442C10.2547 14.621 9.97745 14.8855 9.78435 15.2076C9.59125 15.5298 9.48951 15.8976 9.48986 16.2723Z" fill="#081241"/>
<path opacity="0.3" d="M18.1293 16.2723C18.13 16.764 18.3061 17.2396 18.6265 17.615C18.9469 17.9905 19.3909 18.2416 19.88 18.3239C20.3692 18.4063 20.872 18.3147 21.2996 18.0653C21.7271 17.8158 22.0519 17.4246 22.2166 16.9608C21.8963 17.1333 21.5362 17.2204 21.1718 17.2134C20.8073 17.2065 20.4509 17.1058 20.1375 16.9212C19.8241 16.7367 19.5646 16.4746 19.3842 16.1606C19.2039 15.8467 19.109 15.4917 19.1089 15.1305C19.1089 14.8961 19.1486 14.6634 19.2264 14.442C18.8942 14.621 18.6169 14.8856 18.4238 15.2077C18.2308 15.5298 18.129 15.8976 18.1293 16.2723Z" fill="#081241"/>
</g>
<path d="M17.1703 21.1719C16.0094 21.1719 15.0682 20.2393 15.0682 19.0889C15.0682 17.9385 16.0094 17.0059 17.1703 17.0059C18.3313 17.0059 19.2724 17.9385 19.2724 19.0889C19.2724 20.2393 18.3313 21.1719 17.1703 21.1719Z" fill="#55BC5C"/>
<g opacity="0.55">
<path opacity="0.55" d="M15.65 9.09088C15.8313 9.03909 16.0192 9.01311 16.208 9.01375C16.6194 9.01361 17.0218 9.13316 17.3653 9.35757C17.7088 9.58198 17.9783 9.90137 18.1402 10.2761C18.3022 10.6509 18.3496 11.0645 18.2765 11.4657C18.2035 11.867 18.0131 12.2381 17.7292 12.5331C18.0416 12.4481 18.3299 12.2926 18.5716 12.0789C18.8133 11.8652 19.0018 11.599 19.1225 11.3011C19.2432 11.0032 19.2927 10.6817 19.2672 10.3617C19.2417 10.0417 19.1419 9.73183 18.9756 9.45639C18.8092 9.18094 18.5808 8.94735 18.3083 8.77386C18.0357 8.60037 17.7264 8.49168 17.4044 8.45629C17.0824 8.42091 16.7566 8.45977 16.4523 8.56986C16.148 8.67994 15.8735 8.85826 15.6502 9.09088H15.65Z" fill="white"/>
</g>
<g opacity="0.55">
<path opacity="0.55" d="M11.3305 13.3709C11.5119 13.3194 11.6998 13.2935 11.8885 13.2941C12.3 13.2939 12.7024 13.4134 13.0459 13.6377C13.3894 13.8621 13.6589 14.1815 13.8209 14.5562C13.9829 14.931 14.0303 15.3446 13.9572 15.7458C13.8841 16.1471 13.6937 16.5182 13.4097 16.8131C13.7221 16.7281 14.0103 16.5726 14.252 16.3589C14.4936 16.1451 14.6822 15.8789 14.8028 15.581C14.9234 15.2831 14.9729 14.9616 14.9474 14.6416C14.9219 14.3216 14.822 14.0118 14.6557 13.7364C14.4893 13.461 14.2609 13.2275 13.9884 13.054C13.7158 12.8805 13.4065 12.7718 13.0846 12.7364C12.7626 12.7011 12.4368 12.7399 12.1325 12.85C11.8282 12.96 11.5537 13.1383 11.3305 13.3709Z" fill="white"/>
</g>
<g opacity="0.55">
<path opacity="0.55" d="M19.9691 13.3709C20.1505 13.3194 20.3384 13.2935 20.5272 13.2941C20.9386 13.2939 21.341 13.4134 21.6845 13.6377C22.028 13.8621 22.2975 14.1815 22.4595 14.5562C22.6215 14.931 22.6689 15.3446 22.5958 15.7458C22.5227 16.1471 22.3324 16.5182 22.0483 16.8131C22.3607 16.7281 22.6489 16.5726 22.8906 16.3589C23.1323 16.1451 23.3208 15.8789 23.4414 15.581C23.562 15.2831 23.6115 14.9616 23.586 14.6416C23.5605 14.3216 23.4606 14.0118 23.2943 13.7364C23.1279 13.461 22.8995 13.2275 22.627 13.054C22.3545 12.8805 22.0451 12.7718 21.7232 12.7364C21.4012 12.7011 21.0754 12.7399 20.7711 12.85C20.4668 12.96 20.1924 13.1383 19.9691 13.3709Z" fill="white"/>
</g>
<g opacity="0.55">
<path opacity="0.55" d="M15.6499 17.6539C15.8313 17.6022 16.0192 17.5764 16.208 17.5771C16.6193 17.577 17.0215 17.6966 17.3649 17.921C17.7082 18.1453 17.9776 18.4646 18.1395 18.8393C18.3015 19.2139 18.3489 19.6274 18.2759 20.0285C18.2029 20.4296 18.0127 20.8006 17.7289 21.0956C18.0412 21.0106 18.3296 20.8551 18.5713 20.6414C18.813 20.4277 19.0015 20.1615 19.1222 19.8636C19.2429 19.5657 19.2924 19.2442 19.2669 18.9242C19.2414 18.6042 19.1416 18.2943 18.9752 18.0189C18.8089 17.7434 18.5805 17.5098 18.308 17.3364C18.0354 17.1629 17.726 17.0542 17.4041 17.0188C17.0821 16.9834 16.7562 17.0223 16.4519 17.1324C16.1476 17.2424 15.8732 17.4208 15.6499 17.6534V17.6539Z" fill="white"/>
</g>
<path d="M36.4036 16.4981C36.2276 15.7589 36.6896 15.0182 37.4355 14.8437C38.1815 14.6692 38.929 15.127 39.105 15.8663C39.2811 16.6055 38.8191 17.3461 38.0731 17.5206C37.3272 17.6951 36.5797 17.2373 36.4036 16.4981Z" fill="#081241"/>
<path d="M30.2655 17.1558C29.7235 16.6187 29.7235 15.748 30.2655 15.2109C30.8075 14.6739 31.6862 14.6739 32.2282 15.2109C32.7702 15.748 32.7702 16.6187 32.2282 17.1558C31.6862 17.6928 30.8075 17.6928 30.2655 17.1558Z" fill="#081241"/>
<g opacity="0.3">
<path opacity="0.3" d="M35.4773 17.005C35.4767 17.3263 35.5897 17.6377 35.7968 17.8849C36.0038 18.1322 36.2917 18.2997 36.6105 18.3584C36.9293 18.4171 37.2588 18.3632 37.5416 18.2061C37.8245 18.049 38.0428 17.7986 38.1586 17.4985C38.0272 17.539 37.8903 17.5592 37.7527 17.5585C37.5704 17.5586 37.39 17.523 37.2216 17.4539C37.0533 17.3849 36.9003 17.2836 36.7714 17.1559C36.6426 17.0282 36.5404 16.8766 36.4707 16.7098C36.401 16.543 36.3651 16.3642 36.3651 16.1836C36.3647 16.0147 36.3965 15.8472 36.4589 15.6901C36.1747 15.7762 35.926 15.9504 35.7493 16.1871C35.5726 16.4239 35.4772 16.7106 35.4773 17.005Z" fill="#081241"/>
<path opacity="0.3" d="M28.9715 17.005C28.9709 17.3263 29.0839 17.6377 29.291 17.8849C29.498 18.1322 29.7859 18.2997 30.1047 18.3584C30.4235 18.4171 30.753 18.3632 31.0358 18.2061C31.3187 18.049 31.537 17.7986 31.6528 17.4985C31.5213 17.539 31.3843 17.5592 31.2466 17.5585C30.8786 17.5585 30.5257 17.4137 30.2655 17.1558C30.0052 16.898 29.8591 16.5482 29.8591 16.1836C29.8588 16.0147 29.8906 15.8473 29.9528 15.6901C29.6687 15.7763 29.4201 15.9505 29.2434 16.1872C29.0668 16.424 28.9715 16.7106 28.9715 17.005Z" fill="#081241"/>
</g>
</g>
<defs>
<clipPath id="clip0">
<rect width="69" height="46" fill="white" transform="matrix(-1 0 0 1 69 0)"/>
</clipPath>
</defs>
</svg>
