<svg width="26" height="18" viewBox="0 0 26 18" fill="none" xmlns="http://www.w3.org/2000/svg">
<circle cx="1.7574" cy="1.7574" r="1.7574" transform="rotate(90 1.7574 1.7574)" fill="#AAAAAA" fill-opacity="0.5"/>
<circle cx="24.1464" cy="1.7574" r="1.7574" transform="rotate(90 24.1464 1.7574)" fill="#AAAAAA" fill-opacity="0.5"/>
<circle cx="1.7574" cy="9.00001" r="1.7574" transform="rotate(90 1.7574 9.00001)" fill="#AAAAAA" fill-opacity="0.5"/>
<circle cx="24.1464" cy="9.00001" r="1.7574" transform="rotate(90 24.1464 9.00001)" fill="#AAAAAA" fill-opacity="0.5"/>
<circle cx="1.7574" cy="16.2426" r="1.7574" transform="rotate(90 1.7574 16.2426)" fill="#AAAAAA" fill-opacity="0.5"/>
<circle cx="24.1464" cy="16.2426" r="1.7574" transform="rotate(90 24.1464 16.2426)" fill="#AAAAAA" fill-opacity="0.5"/>
<circle cx="18.5014" cy="1.7574" r="1.7574" transform="rotate(90 18.5014 1.7574)" fill="#AAAAAA" fill-opacity="0.5"/>
<circle cx="18.5014" cy="9.00001" r="1.7574" transform="rotate(90 18.5014 9.00001)" fill="#AAAAAA" fill-opacity="0.5"/>
<circle cx="18.5014" cy="16.2426" r="1.7574" transform="rotate(90 18.5014 16.2426)" fill="#AAAAAA" fill-opacity="0.5"/>
<circle cx="12.8565" cy="1.7574" r="1.7574" transform="rotate(90 12.8565 1.7574)" fill="#AAAAAA" fill-opacity="0.5"/>
<circle cx="12.8565" cy="9.00001" r="1.7574" transform="rotate(90 12.8565 9.00001)" fill="#AAAAAA" fill-opacity="0.5"/>
<circle cx="12.8565" cy="16.2426" r="1.7574" transform="rotate(90 12.8565 16.2426)" fill="#AAAAAA" fill-opacity="0.5"/>
<circle cx="7.21149" cy="1.7574" r="1.7574" transform="rotate(90 7.21149 1.7574)" fill="#AAAAAA" fill-opacity="0.5"/>
<circle cx="7.21149" cy="9.00001" r="1.7574" transform="rotate(90 7.21149 9.00001)" fill="#AAAAAA" fill-opacity="0.5"/>
<circle cx="7.21149" cy="16.2426" r="1.7574" transform="rotate(90 7.21149 16.2426)" fill="#AAAAAA" fill-opacity="0.5"/>
</svg>
