<svg width="61" height="41" viewBox="0 0 61 41" fill="none" xmlns="http://www.w3.org/2000/svg">
<g clip-path="url(#clip0)">
<path d="M4.83594 39.3523C6.07909 40.1125 7.66793 40.0292 8.83247 39.1597C10.9899 37.5467 13.4918 34.9154 16.0543 32.1023C17.3368 30.5751 18.9483 29.6865 21.147 29.9357H40.0272C42.2244 29.6858 43.8374 30.5743 45.1177 32.1023C45.187 32.1791 45.2563 32.254 45.3257 32.3286C47.8159 35.0565 50.2428 37.5898 52.3397 39.1597C52.9087 39.586 53.5951 39.8326 54.3088 39.8669C55.0226 39.9013 55.7301 39.7219 56.3385 39.3523C59.4188 37.4788 60.3262 33.9597 59.9798 29.6311C59.9776 29.5904 59.9732 29.55 59.9688 29.5071C59.8975 28.6251 59.7696 27.7107 59.5984 26.7689C59.5988 26.7638 59.598 26.7586 59.5962 26.7538C59.5833 26.6816 59.5682 26.6064 59.5552 26.534C58.7427 22.1891 57.0208 17.3083 55.1349 12.5664C54.5758 11.1631 54.004 9.77377 53.4364 8.40973C53.2719 8.0166 53.1095 7.62154 52.9481 7.23491L51.3124 6.30998L51.2865 6.22452L50.9335 4.94714C50.8579 4.67352 50.7229 4.41939 50.5378 4.20235C50.3527 3.98531 50.1219 3.81057 49.8615 3.69023C47.5178 2.59654 45.0981 1.78837 42.5899 1.31916C42.5249 1.3064 42.4619 1.29364 42.397 1.28305C41.9142 1.19782 41.4164 1.2897 40.9976 1.54137L39.1544 2.64998C38.5686 3.00499 37.8944 3.19283 37.2069 3.19261H23.9651C23.2777 3.19224 22.6038 3.00444 22.0179 2.64998L20.1766 1.54257C19.7573 1.28998 19.2587 1.19758 18.775 1.28281C16.2018 1.74744 13.7172 2.56765 11.3122 3.69023C11.0521 3.81147 10.8217 3.98665 10.6367 4.20378C10.4516 4.42091 10.3163 4.67489 10.2399 4.94834L9.86297 6.31118L8.22725 7.23611C8.05391 7.64826 7.87863 8.06691 7.70529 8.48797C5.19677 14.5053 2.59964 21.1028 1.57743 26.7603C0.559869 32.3823 1.09917 37.0773 4.83594 39.3523Z" fill="#5E6C7A"/>
<g opacity="0.3">
<path opacity="0.3" d="M24.6957 3.19144C24.6696 3.30675 24.6545 3.37512 24.6545 3.37512L22.2846 7.2371L21.5278 6.88033C20.1328 4.15465 17.4663 4.52419 17.4663 4.52419L18.5352 1.48891L18.6084 1.31799C18.6733 1.30523 18.7361 1.29247 18.801 1.28187C19.2838 1.19662 19.7816 1.2885 20.2004 1.54019L22.0444 2.64881C22.6301 3.00381 23.3042 3.19165 23.9916 3.19144H24.6957Z" fill="#081241"/>
</g>
<g opacity="0.3">
<path opacity="0.3" d="M36.503 3.19143C36.5289 3.30674 36.544 3.37511 36.544 3.37511L38.9139 7.23709L39.6707 6.88031C41.0657 4.15463 43.7324 4.52417 43.7324 4.52417L42.6633 1.4889L42.5901 1.31797C42.5252 1.30521 42.4622 1.29245 42.3972 1.28186C41.9144 1.19663 41.4167 1.28851 40.9978 1.54018L39.1546 2.64879C38.5688 3.00381 37.8947 3.19165 37.2071 3.19143H36.503Z" fill="#081241"/>
</g>
<path d="M1.57789 26.7582C2.60034 21.1007 5.19748 14.5044 7.70575 8.48586C7.87908 8.06505 8.05437 7.6464 8.22771 7.23401L9.86343 6.30908L16.4422 4.66385C17.2665 4.45768 18.1318 4.47301 18.948 4.70823C19.7643 4.94345 20.5018 5.38999 21.0838 6.00141L23.7602 8.81568C24.1027 9.17568 24.5165 9.46262 24.9758 9.65876C25.4352 9.85491 25.9305 9.95609 26.4311 9.95607H34.7428C35.2433 9.95606 35.7386 9.85486 36.1979 9.65871C36.6572 9.46257 37.0709 9.17565 37.4134 8.81568L40.0899 6.00141C40.6718 5.38982 41.4092 4.9431 42.2254 4.70771C43.0417 4.47231 43.907 4.45684 44.7314 4.66288L51.3109 6.30932L52.9466 7.23425C53.1092 7.62088 53.2716 8.01594 53.4349 8.40907C54.0033 9.77239 54.575 11.1632 55.1348 12.5664C57.0215 17.3091 58.7437 22.1891 59.5559 26.534C59.5689 26.6063 59.584 26.6814 59.5969 26.7538C59.5987 26.7587 59.5995 26.7639 59.5991 26.769C59.77 27.7108 59.8982 28.6251 59.9695 29.5072C59.9739 29.5501 59.9783 29.5905 59.9805 29.6312C60.3269 33.9588 59.419 37.4794 56.3392 39.3523C55.7308 39.722 55.0233 39.9014 54.3095 39.867C53.5958 39.8326 52.9094 39.5861 52.3404 39.1597C50.2435 37.5899 47.8175 35.0565 45.3264 32.3287C45.257 32.2541 45.1877 32.1792 45.1184 32.1024C43.8381 30.5751 42.2244 29.6866 40.0279 29.9357H21.1477C18.949 29.6858 17.3375 30.5744 16.055 32.1024C13.4916 34.9155 10.9906 37.547 8.83317 39.1597C7.66766 40.0291 6.07979 40.1124 4.83664 39.3523C1.09914 37.0773 0.559839 32.3824 1.57789 26.7582Z" fill="white"/>
<g opacity="0.3">
<path opacity="0.3" d="M4.8359 39.3509C6.07905 40.1126 7.66667 40.0283 8.8317 39.1597C10.9906 37.5468 13.4918 34.9145 16.0533 32.1007C17.3365 30.5749 18.9495 29.6865 21.146 29.9371H40.0276C42.2248 29.6865 43.8361 30.5749 45.1179 32.1007C45.186 32.1777 45.2563 32.2545 45.3269 32.3289C47.8171 35.0558 50.2435 37.5891 52.3395 39.1597C53.5072 40.0283 55.0924 40.1126 56.3377 39.3509C59.4177 37.4774 60.3259 33.9583 59.9788 29.6295C59.9777 29.5892 59.9744 29.549 59.9688 29.5091C59.9585 29.3777 59.9461 29.246 59.9309 29.1121C59.5938 31.7634 58.5039 33.8947 56.3377 35.2096C55.0926 35.9713 53.5072 35.8871 52.3395 35.0187C50.2435 33.4481 47.8178 30.9148 45.3269 28.1879C45.2563 28.1109 45.186 28.0365 45.1179 27.9597C43.8371 26.4336 42.2244 25.5453 40.0276 25.793H21.146C20.4741 25.716 19.8552 25.7482 19.284 25.8698C19.2815 25.8725 19.2815 25.8698 19.2815 25.8698C18.0059 24.7359 17.4446 22.9248 17.9732 21.2401C17.9976 21.1631 18.0235 21.0863 18.0511 21.0116C18.3028 20.3419 17.514 19.7636 16.949 20.2078C16.9136 20.235 16.8812 20.2624 16.8484 20.2897C16.1841 20.8381 15.6783 21.5824 15.4166 22.4732C15.026 23.8269 15.3282 25.2552 16.138 26.3381C16.5001 26.8227 16.4522 27.4876 16.0611 27.951L16.0533 27.9604C13.4918 30.774 10.9906 33.4065 8.8317 35.0194C7.66667 35.8878 6.07905 35.9721 4.8359 35.2104C2.66942 33.893 1.5774 31.7615 1.24268 29.1066C0.779798 33.6713 1.63281 37.4006 4.8359 39.3509Z" fill="#081241"/>
</g>
<path d="M38.2391 26.7542C35.6635 26.7542 33.5756 24.6953 33.5756 22.1555C33.5756 19.6158 35.6635 17.5569 38.2391 17.5569C40.8147 17.5569 42.9026 19.6158 42.9026 22.1555C42.9026 24.6953 40.8147 26.7542 38.2391 26.7542Z" fill="#D0D4D8"/>
<path d="M38.2391 26.8144C40.844 26.8144 42.9636 24.7246 42.9636 22.1556C42.9636 19.5866 40.844 17.497 38.2391 17.497C35.6341 17.497 33.5145 19.5869 33.5145 22.1551C33.5145 24.7234 35.6341 26.8144 38.2391 26.8144ZM38.2391 17.6181C40.7769 17.6181 42.8416 19.6541 42.8416 22.1563C42.8416 24.6586 40.7769 26.6948 38.2391 26.6948C35.7013 26.6948 33.6366 24.6588 33.6366 22.1551C33.6366 19.6514 35.7015 17.6174 38.2391 17.6174V17.6181Z" fill="#081241"/>
<g opacity="0.3">
<path opacity="0.3" d="M34.4664 19.4544C35.0235 19.2309 35.6194 19.1165 36.2208 19.1173C38.7969 19.1173 40.8838 21.1771 40.8838 23.7155C40.8859 24.6865 40.574 25.6328 39.9934 26.4171C40.8536 26.0732 41.59 25.484 42.1084 24.7248C42.6267 23.9657 42.9035 23.0712 42.9031 22.156C42.9031 19.6173 40.8142 17.5578 38.24 17.5578C37.5037 17.5569 36.7777 17.7284 36.1217 18.0581C35.4656 18.3878 34.8983 18.8663 34.4664 19.4544Z" fill="#102770"/>
<path opacity="0.3" d="M39.7742 26.5848L40.0227 26.4861C40.8983 26.1386 41.648 25.5401 42.175 24.768C42.7021 23.996 42.9822 23.0858 42.9792 22.1551C42.9792 19.5792 40.853 17.4814 38.2393 17.4814C37.4917 17.4829 36.755 17.6583 36.0891 17.9932C35.4231 18.3281 34.8466 18.8132 34.4063 19.409L34.2489 19.6225L34.4969 19.5229C35.0447 19.3026 35.6309 19.1898 36.2225 19.1907C38.7517 19.1907 40.8096 21.2199 40.8096 23.7139C40.8125 24.6694 40.5055 25.6007 39.9334 26.3717L39.7742 26.5848ZM38.2393 17.6318C40.7688 17.6318 42.8266 19.6608 42.8266 22.1549C42.8293 23.0109 42.5845 23.85 42.1208 24.5737C41.657 25.2973 40.9937 25.8757 40.2085 26.2408C40.7024 25.4879 40.9639 24.6097 40.9609 23.713C40.9609 21.137 38.8347 19.0392 36.2213 19.0392C35.7007 19.039 35.1837 19.1238 34.6912 19.2903C35.1221 18.7731 35.6636 18.3562 36.277 18.0695C36.8904 17.7829 37.5605 17.6336 38.2393 17.6323V17.6318Z" fill="#081241"/>
</g>
<path d="M38.2391 27.2059C41.063 27.2059 43.3606 24.9405 43.3606 22.1556C43.3606 19.3707 41.063 17.1056 38.2391 17.1056C35.4151 17.1056 33.1176 19.371 33.1176 22.1556C33.1176 24.9403 35.4151 27.2059 38.2391 27.2059ZM38.2391 18.0096C40.5584 18.0096 42.4446 19.8698 42.4446 22.1564C42.4446 24.4429 40.5579 26.3034 38.2391 26.3034C35.9203 26.3034 34.0336 24.4422 34.0336 22.1551C34.0336 19.8681 35.9212 18.0089 38.2391 18.0089V18.0096Z" fill="#566475"/>
<path d="M20.3104 24.473C19.0125 23.1931 19.0125 21.1181 20.3104 19.8383C21.6083 18.5585 23.7126 18.5585 25.0104 19.8383C26.3083 21.1181 26.3083 23.1931 25.0104 24.473C23.7126 25.7528 21.6083 25.7528 20.3104 24.473Z" fill="#5E6C7A"/>
<path d="M22.6604 25.5082C24.5351 25.5082 26.06 24.0043 26.06 22.1556C26.06 20.307 24.5351 18.8033 22.6604 18.8033C20.7857 18.8033 19.2608 20.3072 19.2608 22.1551C19.2608 24.0031 20.7847 25.5082 22.6604 25.5082ZM22.6604 18.954C24.4509 18.954 25.9074 20.3903 25.9074 22.1559C25.9074 23.9215 24.4509 25.3577 22.6604 25.3577C20.8699 25.3577 19.4134 23.9215 19.4134 22.1559C19.4134 20.3903 20.8701 18.9533 22.6604 18.9533V18.954Z" fill="#081241"/>
<path d="M20.3104 24.473C19.0125 23.1931 19.0125 21.1181 20.3104 19.8383C21.6083 18.5585 23.7126 18.5585 25.0104 19.8383C26.3083 21.1181 26.3083 23.1931 25.0104 24.473C23.7126 25.7528 21.6083 25.7528 20.3104 24.473Z" fill="#D0D4D8"/>
<path d="M22.6604 25.493C24.5266 25.493 26.0449 23.9958 26.0449 22.1556C26.0449 20.3154 24.5266 18.8184 22.6604 18.8184C20.7942 18.8184 19.2762 20.3156 19.2762 22.1551C19.2762 23.9946 20.7942 25.493 22.6604 25.493ZM22.6604 18.9388C24.4595 18.9388 25.9229 20.3818 25.9229 22.1556C25.9229 23.9294 24.4595 25.3726 22.6604 25.3726C20.8614 25.3726 19.3983 23.9296 19.3983 22.1551C19.3983 20.3806 20.8616 18.9388 22.6604 18.9388V18.9388Z" fill="#081241"/>
<path d="M22.6604 25.8845C24.7456 25.8845 26.4418 24.2118 26.4418 22.1556C26.4418 20.0994 24.7456 18.427 22.6604 18.427C20.5752 18.427 18.8792 20.0997 18.8792 22.1551C18.8792 24.2106 20.5755 25.8845 22.6604 25.8845ZM22.6604 19.3303C23.2272 19.3302 23.7812 19.4959 24.2525 19.8064C24.7238 20.1169 25.0911 20.5582 25.308 21.0745C25.5249 21.5909 25.5816 22.1591 25.471 22.7072C25.3604 23.2554 25.0874 23.7589 24.6866 24.154C24.2858 24.5492 23.7752 24.8183 23.2193 24.9272C22.6634 25.0362 22.0872 24.9801 21.5636 24.7662C21.04 24.5522 20.5926 24.1899 20.2778 23.7252C19.963 23.2604 19.7951 22.714 19.7952 22.1551C19.7962 21.4062 20.0984 20.6882 20.6356 20.1586C21.1727 19.629 21.9009 19.3312 22.6604 19.3303Z" fill="#566475"/>
<path d="M22.6604 23.7149C21.7871 23.7149 21.0792 23.0168 21.0792 22.1556C21.0792 21.2944 21.7871 20.5963 22.6604 20.5963C23.5337 20.5963 24.2417 21.2944 24.2417 22.1556C24.2417 23.0168 23.5337 23.7149 22.6604 23.7149Z" fill="#566475"/>
<path d="M43.1984 15.2329C41.9005 13.953 41.9005 11.878 43.1984 10.5982C44.4963 9.31835 46.6006 9.31835 47.8984 10.5982C49.1963 11.878 49.1963 13.953 47.8984 15.2329C46.6006 16.5127 44.4963 16.5127 43.1984 15.2329Z" fill="#5E6C7A"/>
<path d="M45.5481 16.268C47.4228 16.268 48.9479 14.7641 48.9479 12.9154C48.9479 11.0667 47.4228 9.56427 45.5481 9.56427C43.6733 9.56427 42.1487 11.067 42.1487 12.9154C42.1487 14.7638 43.6736 16.268 45.5481 16.268ZM45.5481 9.71353C47.3386 9.71353 48.7951 11.15 48.7951 12.9154C48.7951 14.6808 47.3383 16.1173 45.5481 16.1173C43.7578 16.1173 42.301 14.681 42.301 12.9154C42.301 11.1498 43.7581 9.71353 45.5481 9.71353V9.71353Z" fill="#081241"/>
<g opacity="0.3">
<path opacity="0.3" d="M39.0706 15.1909C39.2366 17.3142 40.9505 19.0529 43.0967 19.2751C43.7419 19.3431 44.3944 19.2729 45.0096 19.0693C45.6248 18.8657 46.1881 18.5335 46.6611 18.0954C46.9624 17.6361 46.6699 17.3029 46.2236 17.32C45.9234 17.3653 45.6194 17.3803 45.3161 17.365C43.0286 17.2538 41.157 15.415 41.0357 13.159C41.0313 13.0801 41.0291 12.9989 41.0291 12.9197C41.0271 12.2043 40.087 11.9308 39.7122 12.5418C39.6878 12.5803 39.6666 12.6166 39.6451 12.6528C39.2007 13.4232 39.0006 14.3072 39.0706 15.1909V15.1909Z" fill="#081241"/>
</g>
<path d="M43.1984 15.2329C41.9005 13.953 41.9005 11.878 43.1984 10.5982C44.4963 9.31835 46.6006 9.31835 47.8984 10.5982C49.1963 11.878 49.1963 13.953 47.8984 15.2329C46.6006 16.5127 44.4963 16.5127 43.1984 15.2329Z" fill="#D0D4D8"/>
<path d="M45.5481 16.8347C47.739 16.8347 49.5214 15.0773 49.5214 12.9167C49.5214 10.756 47.7392 8.99884 45.5481 8.99884C43.3569 8.99884 41.5752 10.7563 41.5752 12.9167C41.5752 15.0771 43.3574 16.8347 45.5481 16.8347ZM45.5481 10.2803C46.0769 10.2803 46.5939 10.4349 47.0336 10.7246C47.4733 11.0143 47.8161 11.4261 48.0184 11.9079C48.2208 12.3897 48.2737 12.9198 48.1704 13.4313C48.0672 13.9427 47.8125 14.4125 47.4385 14.7812C47.0645 15.1499 46.588 15.4009 46.0693 15.5025C45.5505 15.6041 45.0129 15.5518 44.5244 15.352C44.0359 15.1523 43.6184 14.8142 43.3248 14.3805C43.0311 13.9468 42.8745 13.437 42.8748 12.9155C42.8756 12.2166 43.1575 11.5465 43.6587 11.0523C44.1598 10.5581 44.8393 10.28 45.5481 10.2791V10.2803Z" fill="#566475"/>
<path d="M45.5483 14.4747C44.675 14.4747 43.967 13.7766 43.967 12.9154C43.967 12.0543 44.675 11.3561 45.5483 11.3561C46.4216 11.3561 47.1296 12.0543 47.1296 12.9154C47.1296 13.7766 46.4216 14.4747 45.5483 14.4747Z" fill="#566475"/>
<path d="M15.4234 11.517C14.4076 11.517 13.5841 10.7049 13.5841 9.70321C13.5841 8.70151 14.4076 7.88947 15.4234 7.88947C16.4393 7.88947 17.2628 8.70151 17.2628 9.70321C17.2628 10.7049 16.4393 11.517 15.4234 11.517Z" fill="#E5C62C"/>
<path d="M35.0152 21.3436V22.9679C35.0152 23.0644 35.0541 23.157 35.1232 23.2254C35.1924 23.2937 35.2862 23.3322 35.3841 23.3324H36.9441V24.8707C36.9441 24.9674 36.9831 25.0601 37.0524 25.1284C37.1217 25.1968 37.2157 25.2352 37.3138 25.2352H38.9593C39.0573 25.2352 39.1513 25.1968 39.2206 25.1284C39.2899 25.0601 39.3289 24.9674 39.3289 24.8707V23.3324H40.8899C40.9384 23.3324 40.9865 23.3229 41.0313 23.3046C41.0761 23.2863 41.1169 23.2595 41.1512 23.2256C41.1855 23.1918 41.2127 23.1516 41.2312 23.1074C41.2498 23.0631 41.2593 23.0157 41.2593 22.9679V21.3436C41.2593 21.2957 41.2498 21.2484 41.2312 21.2041C41.2127 21.1599 41.1855 21.1197 41.1512 21.0859C41.1169 21.052 41.0761 21.0252 41.0313 21.0069C40.9865 20.9885 40.9384 20.9791 40.8899 20.9791H39.3296V19.4408C39.3296 19.3441 39.2907 19.2514 39.2214 19.183C39.152 19.1147 39.058 19.0763 38.96 19.0763H37.3145C37.2165 19.0763 37.1225 19.1147 37.0531 19.183C36.9838 19.2514 36.9449 19.3441 36.9449 19.4408V20.9791H35.3841C35.2862 20.9793 35.1924 21.0178 35.1232 21.0861C35.0541 21.1545 35.0152 21.2471 35.0152 21.3436Z" fill="#566475"/>
<path d="M11.6437 15.2444C10.6279 15.2444 9.80436 14.4323 9.80436 13.4306C9.80436 12.4289 10.6279 11.6169 11.6437 11.6169C12.6595 11.6169 13.483 12.4289 13.483 13.4306C13.483 14.4323 12.6595 15.2444 11.6437 15.2444Z" fill="#E52C5C"/>
<path d="M19.2034 15.2444C18.1876 15.2444 17.3641 14.4323 17.3641 13.4306C17.3641 12.4289 18.1876 11.6169 19.2034 11.6169C20.2192 11.6169 21.0427 12.4289 21.0427 13.4306C21.0427 14.4323 20.2192 15.2444 19.2034 15.2444Z" fill="#5E7DEF"/>
<g opacity="0.3">
<path opacity="0.3" d="M12.482 10.9773C12.482 11.4057 12.6357 11.8204 12.9161 12.1478C13.1964 12.4752 13.5852 12.6942 14.0136 12.766C14.4419 12.8378 14.8823 12.7578 15.2565 12.5401C15.6308 12.3224 15.9149 11.9811 16.0584 11.5767C15.7783 11.727 15.4633 11.8029 15.1445 11.7969C14.8256 11.7909 14.5138 11.7033 14.2397 11.5425C13.9656 11.3818 13.7386 11.1536 13.581 10.8802C13.4234 10.6068 13.3405 10.2977 13.3407 9.98324C13.3409 9.77915 13.3757 9.57654 13.4437 9.38379C13.1527 9.53931 12.9097 9.76949 12.7404 10.05C12.5711 10.3305 12.4819 10.6509 12.482 10.9773V10.9773Z" fill="#081241"/>
<path opacity="0.3" d="M12.482 18.4318C12.482 18.8603 12.6357 19.275 12.9161 19.6024C13.1964 19.9298 13.5852 20.1488 14.0136 20.2206C14.4419 20.2924 14.8823 20.2124 15.2565 19.9947C15.6308 19.777 15.9149 19.4357 16.0584 19.0313C15.732 19.2061 15.3595 19.2794 14.99 19.2415C14.6205 19.2036 14.2713 19.0562 13.9883 18.8189C13.7054 18.5816 13.5019 18.2653 13.4047 17.9118C13.3075 17.5582 13.3211 17.1839 13.4437 16.8381C13.1527 16.9937 12.9097 17.2239 12.7404 17.5044C12.5711 17.785 12.4818 18.1054 12.482 18.4318V18.4318Z" fill="#081241"/>
<path opacity="0.3" d="M8.70304 14.7054C8.70368 15.1335 8.85778 15.5476 9.13812 15.8745C9.41845 16.2014 9.80695 16.4201 10.235 16.4918C10.663 16.5636 11.1029 16.4838 11.477 16.2666C11.8512 16.0494 12.1354 15.7087 12.2794 15.3049C11.9992 15.4551 11.6841 15.5309 11.3652 15.5248C11.0463 15.5188 10.7344 15.4311 10.4602 15.2704C10.186 15.1097 9.95883 14.8815 9.80102 14.6081C9.6432 14.3348 9.56013 14.0257 9.55997 13.7111C9.56005 13.507 9.59488 13.3044 9.66299 13.1117C9.37231 13.2675 9.12968 13.4978 8.96072 13.7784C8.79176 14.0589 8.70273 14.3792 8.70304 14.7054Z" fill="#081241"/>
<path opacity="0.3" d="M16.2625 14.7054C16.2631 15.1335 16.4172 15.5476 16.6976 15.8745C16.9779 16.2014 17.3664 16.4201 17.7944 16.4918C18.2224 16.5636 18.6624 16.4838 19.0365 16.2666C19.4106 16.0494 19.6948 15.7087 19.8389 15.3049C19.5586 15.4551 19.2436 15.5309 18.9247 15.5249C18.6058 15.5188 18.2939 15.4311 18.0197 15.2704C17.7455 15.1097 17.5184 14.8815 17.3606 14.6082C17.2028 14.3348 17.1198 14.0257 17.1197 13.7111C17.1197 13.5071 17.1544 13.3044 17.2224 13.1117C16.9318 13.2676 16.6892 13.4979 16.5202 13.7784C16.3513 14.0589 16.2622 14.3792 16.2625 14.7054V14.7054Z" fill="#081241"/>
</g>
<path d="M15.4234 18.9715C14.4076 18.9715 13.5841 18.1595 13.5841 17.1578C13.5841 16.1561 14.4076 15.3441 15.4234 15.3441C16.4393 15.3441 17.2628 16.1561 17.2628 17.1578C17.2628 18.1595 16.4393 18.9715 15.4234 18.9715Z" fill="#55BC5C"/>
<g opacity="0.55">
<path opacity="0.55" d="M14.0931 8.45234C14.2518 8.40724 14.4162 8.38462 14.5814 8.38517C14.9414 8.38505 15.2935 8.48915 15.594 8.68455C15.8946 8.87995 16.1304 9.15806 16.2721 9.48438C16.4138 9.81069 16.4553 10.1709 16.3914 10.5202C16.3274 10.8696 16.1609 11.1927 15.9124 11.4496C16.1858 11.3756 16.438 11.2402 16.6495 11.0541C16.861 10.868 17.026 10.6362 17.1316 10.3768C17.2372 10.1174 17.2805 9.83749 17.2582 9.55885C17.2359 9.28021 17.1486 9.01043 17.003 8.77059C16.8574 8.53076 16.6576 8.32736 16.4191 8.1763C16.1806 8.02523 15.9099 7.9306 15.6282 7.89978C15.3465 7.86897 15.0614 7.90281 14.7951 7.99867C14.5289 8.09452 14.2887 8.24979 14.0933 8.45234H14.0931Z" fill="white"/>
</g>
<g opacity="0.55">
<path opacity="0.55" d="M10.3137 12.179C10.4724 12.1341 10.6368 12.1116 10.8019 12.1121C11.1619 12.1119 11.5141 12.2159 11.8146 12.4113C12.1152 12.6067 12.351 12.8848 12.4927 13.2111C12.6345 13.5374 12.6759 13.8976 12.612 14.2469C12.548 14.5963 12.3815 14.9194 12.133 15.1762C12.4063 15.1022 12.6585 14.9668 12.8699 14.7807C13.0814 14.5946 13.2463 14.3628 13.3519 14.1034C13.4574 13.844 13.5007 13.5641 13.4784 13.2854C13.4561 13.0068 13.3687 12.7371 13.2232 12.4972C13.0776 12.2574 12.8778 12.0541 12.6393 11.903C12.4008 11.752 12.1302 11.6573 11.8485 11.6265C11.5667 11.5957 11.2816 11.6296 11.0154 11.7254C10.7491 11.8212 10.509 11.9765 10.3137 12.179Z" fill="white"/>
</g>
<g opacity="0.55">
<path opacity="0.55" d="M17.8724 12.179C18.0311 12.1341 18.1955 12.1116 18.3606 12.1121C18.7206 12.1119 19.0728 12.2159 19.3733 12.4113C19.6739 12.6067 19.9097 12.8848 20.0515 13.2111C20.1932 13.5374 20.2347 13.8976 20.1707 14.2469C20.1068 14.5963 19.9402 14.9194 19.6917 15.1762C19.965 15.1022 20.2172 14.9668 20.4287 14.7807C20.6401 14.5946 20.8051 14.3628 20.9106 14.1034C21.0162 13.844 21.0595 13.5641 21.0371 13.2854C21.0148 13.0068 20.9274 12.7371 20.7819 12.4972C20.6363 12.2574 20.4365 12.0541 20.198 11.903C19.9595 11.752 19.6889 11.6573 19.4072 11.6265C19.1255 11.5957 18.8404 11.6296 18.5741 11.7254C18.3079 11.8212 18.0677 11.9765 17.8724 12.179Z" fill="white"/>
</g>
<g opacity="0.55">
<path opacity="0.55" d="M14.0931 15.9084C14.2518 15.8634 14.4162 15.8408 14.5814 15.8415C14.9413 15.8414 15.2932 15.9455 15.5937 16.1409C15.8941 16.3363 16.1298 16.6143 16.2715 16.9405C16.4132 17.2667 16.4547 17.6267 16.3908 17.976C16.3269 18.3252 16.1605 18.6483 15.9122 18.9051C16.1855 18.8311 16.4378 18.6958 16.6493 18.5097C16.8608 18.3236 17.0258 18.0918 17.1313 17.8324C17.2369 17.573 17.2803 17.2931 17.258 17.0144C17.2357 16.7358 17.1483 16.466 17.0028 16.2262C16.8572 15.9863 16.6574 15.7829 16.4189 15.6319C16.1804 15.4808 15.9097 15.3862 15.628 15.3553C15.3463 15.3245 15.0611 15.3584 14.7949 15.4542C14.5286 15.5501 14.2884 15.7054 14.0931 15.9079V15.9084Z" fill="white"/>
</g>
<path d="M32.2526 14.902C32.0985 14.2583 32.5028 13.6134 33.1555 13.4615C33.8082 13.3096 34.4623 13.7082 34.6163 14.3518C34.7704 14.9955 34.3661 15.6404 33.7134 15.7923C33.0607 15.9443 32.4067 15.5456 32.2526 14.902Z" fill="#081241"/>
<path d="M26.8818 15.4746C26.4075 15.007 26.4075 14.2488 26.8818 13.7811C27.356 13.3135 28.1249 13.3135 28.5991 13.7811C29.0733 14.2488 29.0733 15.007 28.5991 15.4746C28.1249 15.9422 27.356 15.9422 26.8818 15.4746Z" fill="#081241"/>
<g opacity="0.3">
<path opacity="0.3" d="M31.442 15.3433C31.4415 15.6231 31.5404 15.8942 31.7216 16.1095C31.9027 16.3248 32.1547 16.4707 32.4336 16.5218C32.7126 16.5729 33.0008 16.5259 33.2483 16.3891C33.4958 16.2524 33.6868 16.0344 33.7882 15.7731C33.6732 15.8083 33.5534 15.8259 33.433 15.8253C33.2735 15.8253 33.1157 15.7944 32.9683 15.7342C32.821 15.6741 32.6872 15.5859 32.5744 15.4747C32.4617 15.3635 32.3722 15.2315 32.3112 15.0863C32.2502 14.941 32.2189 14.7853 32.2189 14.6281C32.2185 14.481 32.2464 14.3352 32.3009 14.1984C32.0523 14.2733 31.8346 14.4251 31.68 14.6312C31.5254 14.8373 31.442 15.0869 31.442 15.3433Z" fill="#081241"/>
<path opacity="0.3" d="M25.7495 15.3433C25.7489 15.6231 25.8478 15.8942 26.029 16.1095C26.2102 16.3248 26.4621 16.4707 26.7411 16.5218C27.02 16.5729 27.3083 16.5259 27.5558 16.3891C27.8032 16.2524 27.9943 16.0344 28.0956 15.7731C27.9806 15.8083 27.8607 15.8259 27.7402 15.8253C27.4182 15.8253 27.1094 15.6992 26.8817 15.4746C26.654 15.2501 26.5261 14.9456 26.5261 14.6281C26.5258 14.481 26.5537 14.3353 26.6081 14.1984C26.3595 14.2734 26.142 14.4252 25.9874 14.6313C25.8328 14.8374 25.7494 15.087 25.7495 15.3433V15.3433Z" fill="#081241"/>
</g>
</g>
<defs>
<clipPath id="clip0">
<rect width="60.375" height="40.0537" fill="white" transform="matrix(-1 0 0 1 60.7744 0.53656)"/>
</clipPath>
</defs>
</svg>
